<svg width="882" height="882" viewBox="0 0 882 882" fill="none" xmlns="http://www.w3.org/2000/svg">
<g filter="url(#filter0_d_3_152)">
<g clip-path="url(#clip0_3_152)">
<rect x="120.804" y="158.658" width="600" height="600" rx="300" transform="rotate(-4 120.804 158.658)" fill="url(#paint0_linear_3_152)"/>
<g opacity="0.5" filter="url(#filter1_i_3_152)">
<path d="M425.845 542.371C410.474 551.416 396.908 545.14 387.626 529.364C378.344 513.589 383.28 493.468 398.651 484.424C414.022 475.38 432.111 480.966 441.394 496.742C450.676 512.517 441.216 533.327 425.845 542.371Z" fill="#C0B1E2"/>
</g>
<g opacity="0.7" filter="url(#filter2_i_3_152)">
<path d="M425.369 529.834C415.661 535.546 400.231 534.031 394.519 524.323C388.807 514.615 394.416 497.763 404.124 492.05C413.832 486.338 426.892 492.206 432.605 501.914C438.317 511.622 435.077 524.122 425.369 529.834Z" fill="#A896D3"/>
</g>
<g opacity="0.5" filter="url(#filter3_i_3_152)">
<path d="M489.081 707.399C474.929 715.726 449.345 702.865 441.018 688.713C432.691 674.561 440.867 649.994 455.019 641.667C469.171 633.339 488.211 641.893 496.538 656.045C504.865 670.197 503.233 699.072 489.081 707.399Z" fill="#A896D3"/>
</g>
<g opacity="0.6" filter="url(#filter4_i_3_152)">
<path d="M167.309 814.832C185.555 822.38 213.868 802.783 221.416 784.537C228.964 766.291 215.116 738.404 196.87 730.856C178.623 723.309 157.382 736.681 149.834 754.927C142.287 773.174 149.063 807.285 167.309 814.832Z" fill="#C0B1E2"/>
</g>
<g opacity="0.7" filter="url(#filter5_i_3_152)">
<path d="M176.408 799.725C189.615 805.188 210.108 791.004 215.571 777.797C221.034 764.59 211.011 744.405 197.804 738.942C184.597 733.479 169.222 743.158 163.759 756.365C158.296 769.572 163.201 794.262 176.408 799.725Z" fill="#A896D3"/>
</g>
<g opacity="0.5" filter="url(#filter6_i_3_152)">
<path d="M604.213 364.336C582.917 387.401 567.095 374.855 543.424 352.999C519.752 331.143 507.595 303.604 528.891 280.539C550.186 257.474 583.511 257.678 607.183 279.534C630.854 301.39 625.509 341.271 604.213 364.336Z" fill="#C0B1E2"/>
</g>
<g opacity="0.7" filter="url(#filter7_i_3_152)">
<path d="M597.028 343.452C583.578 358.019 565.94 353.429 551.372 339.98C536.805 326.53 528.544 305.169 541.994 290.602C555.444 276.035 580.438 279.272 595.006 292.722C609.573 306.172 610.478 328.885 597.028 343.452Z" fill="#C0B1E2"/>
</g>
<g opacity="0.5" filter="url(#filter8_i_3_152)">
<path d="M649.028 739.572C618.231 743.801 614.031 724.252 609.691 692.644C605.35 661.037 613.389 632.331 644.186 628.102C674.984 623.873 700.332 645.003 704.672 676.611C709.013 708.219 679.825 735.343 649.028 739.572Z" fill="#E6D7FF"/>
</g>
<g opacity="0.7" filter="url(#filter9_i_3_152)">
<path d="M656.68 719.084C637.229 721.755 626.633 707.145 623.962 687.694C621.291 668.243 628.419 646.714 647.87 644.043C667.321 641.372 684.391 659.578 687.062 679.029C689.733 698.48 676.131 716.413 656.68 719.084Z" fill="#C0B1E2"/>
</g>
<g opacity="0.7" filter="url(#filter10_i_3_152)">
<path d="M274.228 624.187C267.754 631.199 259.264 628.99 252.253 622.516C245.242 616.042 241.265 605.761 247.739 598.75C254.213 591.738 266.243 593.297 273.254 599.77C280.266 606.244 280.701 617.176 274.228 624.187Z" fill="#A896D3"/>
</g>
<g opacity="0.7" filter="url(#filter11_i_3_152)">
<path d="M723.503 467.341C708.835 474.791 696.439 466.129 688.99 451.462C681.541 436.794 681.28 417.793 695.948 410.344C710.615 402.895 729.124 412.628 736.573 427.296C744.022 441.963 738.17 459.892 723.503 467.341Z" fill="#E6D7FF"/>
</g>
<g opacity="0.7" filter="url(#filter12_i_3_152)">
<path d="M747.151 375.468C732.484 382.917 720.088 374.255 712.639 359.588C705.19 344.921 704.929 325.92 719.596 318.471C734.264 311.022 752.772 320.755 760.221 335.422C767.67 350.09 761.819 368.019 747.151 375.468Z" fill="#E6D7FF"/>
</g>
<g opacity="0.5" filter="url(#filter13_i_3_152)">
<path d="M256.986 392.772C241.166 416.073 249.674 438.091 273.588 454.328C297.502 470.564 329.713 464.837 345.533 441.536C361.353 418.235 354.394 389.158 330.48 372.921C306.565 356.685 272.806 369.471 256.986 392.772Z" fill="#C0B1E2"/>
</g>
<g opacity="0.7" filter="url(#filter14_i_3_152)">
<path d="M276.696 394.8C266.705 409.516 267.52 433.987 282.236 443.979C296.953 453.97 324.082 446.85 334.074 432.133C344.066 417.417 336.151 396.236 321.434 386.244C306.718 376.253 286.688 380.083 276.696 394.8Z" fill="#A896D3"/>
</g>
<g opacity="0.7" filter="url(#filter15_i_3_152)">
<path d="M165.049 432.274C161.973 436.804 162.224 444.336 166.754 447.411C171.283 450.487 179.634 448.295 182.709 443.765C185.785 439.236 183.348 432.716 178.819 429.641C174.289 426.565 168.124 427.744 165.049 432.274Z" fill="#A896D3"/>
</g>
<g opacity="0.7" filter="url(#filter16_i_3_152)">
<path d="M288.083 290.776C285.144 295.104 285.384 302.301 289.712 305.24C294.041 308.179 302.02 306.085 304.959 301.756C307.898 297.428 305.57 291.198 301.241 288.259C296.913 285.321 291.022 286.447 288.083 290.776Z" fill="#C0B1E2"/>
</g>
<g opacity="0.7" filter="url(#filter17_i_3_152)">
<path d="M160.702 189.414C157.763 193.743 158.003 200.94 162.331 203.879C166.66 206.818 174.639 204.723 177.578 200.395C180.516 196.067 178.188 189.837 173.86 186.898C169.532 183.959 163.641 185.086 160.702 189.414Z" fill="#A896D3"/>
</g>
<g opacity="0.7" filter="url(#filter18_i_3_152)">
<path d="M702.982 720.059C700.044 724.388 700.283 731.585 704.612 734.524C708.94 737.463 716.92 735.368 719.858 731.04C722.797 726.712 720.469 720.482 716.141 717.543C711.812 714.604 705.921 715.731 702.982 720.059Z" fill="#C0B1E2"/>
</g>
<g opacity="0.7" filter="url(#filter19_i_3_152)">
<path d="M714.563 598.957C711.624 603.285 711.864 610.483 716.192 613.421C720.521 616.36 728.5 614.266 731.439 609.937C734.377 605.609 732.049 599.379 727.721 596.441C723.393 593.502 717.502 594.629 714.563 598.957Z" fill="#C0B1E2"/>
</g>
<g opacity="0.7" filter="url(#filter20_i_3_152)">
<path d="M305.295 748.236C302.356 752.564 302.596 759.761 306.924 762.7C311.253 765.639 319.232 763.545 322.171 759.216C325.109 754.888 322.781 748.658 318.453 745.719C314.125 742.781 308.233 743.907 305.295 748.236Z" fill="#A896D3"/>
</g>
<g opacity="0.8">
<g opacity="0.5" filter="url(#filter21_i_3_152)">
<path d="M551.036 460.946C512.302 483.41 509.3 520.818 532.356 560.571C555.412 600.325 605.502 614.34 644.236 591.876C682.97 569.411 693.059 522.96 670.003 483.207C646.948 443.453 589.77 438.481 551.036 460.946Z" fill="#E6D7FF"/>
</g>
<g opacity="0.7" filter="url(#filter22_i_3_152)">
<path d="M577.872 477.445C553.408 491.633 537.696 527.248 551.884 551.712C566.072 576.176 609.845 584.69 634.308 570.502C658.772 556.314 662.045 520.514 647.857 496.051C633.669 471.587 602.335 463.257 577.872 477.445Z" fill="#C0B1E2"/>
</g>
<g opacity="0.7" filter="url(#filter23_i_3_152)">
<path d="M575.129 501.902C561.493 509.811 552.734 529.663 560.643 543.3C568.552 556.937 592.952 561.683 606.589 553.774C620.226 545.866 622.05 525.91 614.141 512.273C606.232 498.636 588.766 493.993 575.129 501.902Z" fill="#A896D3"/>
</g>
<g opacity="0.7" filter="url(#filter24_i_3_152)">
<path d="M513.891 397.4C504.987 402.564 499.268 415.526 504.432 424.43C509.596 433.334 525.528 436.433 534.432 431.269C543.336 426.105 544.527 413.075 539.363 404.171C534.199 395.268 522.795 392.236 513.891 397.4Z" fill="#C0B1E2"/>
</g>
</g>
<g opacity="0.8">
<g opacity="0.5" filter="url(#filter25_i_3_152)">
<path d="M458.583 119.5C450.969 72.1879 414.736 54.8608 366.178 62.6752C317.621 70.4897 284.43 115.179 292.044 162.491C299.658 209.803 342.214 237.677 390.771 229.862C439.329 222.048 466.197 166.813 458.583 119.5Z" fill="#E6D7FF"/>
</g>
<g opacity="0.7" filter="url(#filter26_i_3_152)">
<path d="M431.815 139.999C427.007 110.117 397.433 80.7744 367.552 85.5833C337.67 90.3922 312.396 130.875 317.205 160.756C322.014 190.638 356.536 207.62 386.418 202.811C416.299 198.002 436.624 169.88 431.815 139.999Z" fill="#C0B1E2"/>
</g>
<g opacity="0.7" filter="url(#filter27_i_3_152)">
<path d="M408.427 127.891C405.746 111.234 389.261 94.8778 372.605 97.5584C355.948 100.239 341.859 122.805 344.54 139.462C347.22 156.119 366.464 165.585 383.121 162.905C399.778 160.224 411.108 144.548 408.427 127.891Z" fill="#A896D3"/>
</g>
</g>
<g opacity="0.8">
<g opacity="0.5" filter="url(#filter28_i_3_152)">
<path d="M226.969 255.124C200.938 247.39 183.189 261.637 175.252 288.354C167.315 315.07 181.984 342.997 208.015 350.73C234.047 358.464 258.734 343.579 266.671 316.862C274.608 290.146 253.001 262.857 226.969 255.124Z" fill="#E6D7FF"/>
</g>
<g opacity="0.7" filter="url(#filter29_i_3_152)">
<path d="M230.861 273.828C214.421 268.944 192.172 276.839 187.287 293.279C182.403 309.72 196.868 332.571 213.309 337.455C229.75 342.34 246.902 328.882 251.786 312.441C256.671 296 247.302 278.713 230.861 273.828Z" fill="#C0B1E2"/>
</g>
<g opacity="0.7" filter="url(#filter30_i_3_152)">
<path d="M218.933 282.798C209.769 280.076 197.367 284.476 194.644 293.641C191.921 302.805 199.984 315.543 209.149 318.266C218.314 320.989 227.875 313.487 230.598 304.322C233.32 295.157 228.098 285.521 218.933 282.798Z" fill="#A896D3"/>
</g>
</g>
<g opacity="0.5" filter="url(#filter31_i_3_152)">
<path d="M86.0403 547.067C90.7406 576.982 113.596 588.016 144.298 583.192C175 578.368 196.078 550.207 191.378 520.292C186.677 490.377 159.851 472.664 129.15 477.488C98.4476 482.312 81.3399 517.153 86.0403 547.067Z" fill="#E6D7FF"/>
</g>
<g opacity="0.7" filter="url(#filter32_i_3_152)">
<path d="M103.002 534.177C105.971 553.07 124.589 571.682 143.483 568.713C162.376 565.744 178.442 540.223 175.473 521.329C172.505 502.436 150.73 491.623 131.836 494.592C112.943 497.561 100.033 515.283 103.002 534.177Z" fill="#C0B1E2"/>
</g>
<g opacity="0.5" filter="url(#filter33_i_3_152)">
<path d="M518.503 139.938C501.523 164.949 510.655 188.582 536.323 206.009C561.991 223.436 596.565 217.289 613.545 192.279C630.526 167.268 623.056 136.058 597.388 118.631C571.719 101.204 535.484 114.928 518.503 139.938Z" fill="#C0B1E2"/>
</g>
<g opacity="0.7" filter="url(#filter34_i_3_152)">
<path d="M539.659 142.114C528.935 157.91 529.81 184.176 545.606 194.9C561.402 205.625 590.521 197.982 601.246 182.186C611.97 166.39 603.475 143.656 587.679 132.931C571.883 122.207 550.384 126.318 539.659 142.114Z" fill="#A896D3"/>
</g>
<circle cx="388.192" cy="575.877" r="7.24396" transform="rotate(-4 388.192 575.877)" fill="#A896D3"/>
<circle cx="373.285" cy="362.701" r="7.24396" transform="rotate(-4 373.285 362.701)" fill="#C0B1E2"/>
<circle cx="298.617" cy="520.759" r="7.24396" transform="rotate(-4 298.617 520.759)" fill="#A896D3"/>
<circle cx="355.885" cy="321.558" r="7.24396" transform="rotate(-4 355.885 321.558)" fill="#C0B1E2"/>
<circle cx="372.023" cy="690.799" r="7.24396" transform="rotate(-4 372.023 690.799)" fill="#A896D3"/>
<circle cx="579.967" cy="722.223" r="7.24396" transform="rotate(-4 579.967 722.223)" fill="#A896D3"/>
<circle cx="507.114" cy="545.776" r="7.24396" transform="rotate(-4 507.114 545.776)" fill="#C0B1E2"/>
<circle cx="452.002" cy="271.977" r="7.24396" transform="rotate(-4 452.002 271.977)" fill="#C0B1E2"/>
<circle cx="386.137" cy="338.807" r="7.24396" transform="rotate(-4 386.137 338.807)" fill="#C0B1E2"/>
<circle cx="232.043" cy="419.778" r="7.24396" transform="rotate(-4 232.043 419.778)" fill="#A896D3"/>
<circle cx="667.67" cy="196.652" r="7.24396" transform="rotate(-4 667.67 196.652)" fill="#A896D3"/>
<g opacity="0.8">
<g opacity="0.5" filter="url(#filter35_i_3_152)">
<path d="M92.3584 291.737C73.9301 286.262 61.3652 296.348 55.7465 315.262C50.1277 334.175 60.5119 353.945 78.9402 359.42C97.3686 364.895 114.846 354.357 120.464 335.444C126.083 316.53 110.787 297.212 92.3584 291.737Z" fill="#E6D7FF"/>
</g>
</g>
<g filter="url(#filter36_f_3_152)">
<path d="M339.383 40.876C141.099 345.599 366.953 747.562 730.346 736.692L846.859 733.206L-179.15 800.564L339.383 40.876Z" fill="url(#paint1_linear_3_152)" fill-opacity="0.4"/>
</g>
<g opacity="0.2" filter="url(#filter37_f_3_152)">
<path d="M410.166 863.772C683.383 623.927 574.486 175.902 221.661 88.2225L108.537 60.1103L1114.61 272.364L410.166 863.772Z" fill="white"/>
</g>
</g>
</g>
<defs>
<filter id="filter0_d_3_152" x="0.803833" y="0.803711" width="880.392" height="880.393" filterUnits="userSpaceOnUse" color-interpolation-filters="sRGB">
<feFlood flood-opacity="0" result="BackgroundImageFix"/>
<feColorMatrix in="SourceAlpha" type="matrix" values="0 0 0 0 0 0 0 0 0 0 0 0 0 0 0 0 0 0 127 0" result="hardAlpha"/>
<feMorphology radius="20" operator="dilate" in="SourceAlpha" result="effect1_dropShadow_3_152"/>
<feOffset dy="4"/>
<feGaussianBlur stdDeviation="50"/>
<feComposite in2="hardAlpha" operator="out"/>
<feColorMatrix type="matrix" values="0 0 0 0 0.651 0 0 0 0 0.561337 0 0 0 0 0.904167 0 0 0 0.3 0"/>
<feBlend mode="normal" in2="BackgroundImageFix" result="effect1_dropShadow_3_152"/>
<feBlend mode="normal" in="SourceGraphic" in2="effect1_dropShadow_3_152" result="shape"/>
</filter>
<filter id="filter1_i_3_152" x="382.94" y="480.09" width="62.1257" height="70.1138" filterUnits="userSpaceOnUse" color-interpolation-filters="sRGB">
<feFlood flood-opacity="0" result="BackgroundImageFix"/>
<feBlend mode="normal" in="SourceGraphic" in2="BackgroundImageFix" result="shape"/>
<feColorMatrix in="SourceAlpha" type="matrix" values="0 0 0 0 0 0 0 0 0 0 0 0 0 0 0 0 0 0 127 0" result="hardAlpha"/>
<feOffset dy="3.66408"/>
<feGaussianBlur stdDeviation="3.66408"/>
<feComposite in2="hardAlpha" operator="arithmetic" k2="-1" k3="1"/>
<feColorMatrix type="matrix" values="0 0 0 0 0.356863 0 0 0 0 0.262745 0 0 0 0 0.623529 0 0 0 0.5 0"/>
<feBlend mode="normal" in2="shape" result="effect1_innerShadow_3_152"/>
</filter>
<filter id="filter2_i_3_152" x="392.225" y="489.804" width="43.2" height="47.023" filterUnits="userSpaceOnUse" color-interpolation-filters="sRGB">
<feFlood flood-opacity="0" result="BackgroundImageFix"/>
<feBlend mode="normal" in="SourceGraphic" in2="BackgroundImageFix" result="shape"/>
<feColorMatrix in="SourceAlpha" type="matrix" values="0 0 0 0 0 0 0 0 0 0 0 0 0 0 0 0 0 0 127 0" result="hardAlpha"/>
<feOffset dy="3.66408"/>
<feGaussianBlur stdDeviation="3.66408"/>
<feComposite in2="hardAlpha" operator="arithmetic" k2="-1" k3="1"/>
<feColorMatrix type="matrix" values="0 0 0 0 0.356863 0 0 0 0 0.262745 0 0 0 0 0.623529 0 0 0 0.5 0"/>
<feBlend mode="normal" in2="shape" result="effect1_innerShadow_3_152"/>
</filter>
<filter id="filter3_i_3_152" x="437.673" y="638.391" width="63.9132" height="75.3028" filterUnits="userSpaceOnUse" color-interpolation-filters="sRGB">
<feFlood flood-opacity="0" result="BackgroundImageFix"/>
<feBlend mode="normal" in="SourceGraphic" in2="BackgroundImageFix" result="shape"/>
<feColorMatrix in="SourceAlpha" type="matrix" values="0 0 0 0 0 0 0 0 0 0 0 0 0 0 0 0 0 0 127 0" result="hardAlpha"/>
<feOffset dy="3.66408"/>
<feGaussianBlur stdDeviation="3.66408"/>
<feComposite in2="hardAlpha" operator="arithmetic" k2="-1" k3="1"/>
<feColorMatrix type="matrix" values="0 0 0 0 0.356863 0 0 0 0 0.262745 0 0 0 0 0.623529 0 0 0 0.5 0"/>
<feBlend mode="normal" in2="shape" result="effect1_innerShadow_3_152"/>
</filter>
<filter id="filter4_i_3_152" x="146.797" y="728.708" width="76.7206" height="91.4483" filterUnits="userSpaceOnUse" color-interpolation-filters="sRGB">
<feFlood flood-opacity="0" result="BackgroundImageFix"/>
<feBlend mode="normal" in="SourceGraphic" in2="BackgroundImageFix" result="shape"/>
<feColorMatrix in="SourceAlpha" type="matrix" values="0 0 0 0 0 0 0 0 0 0 0 0 0 0 0 0 0 0 127 0" result="hardAlpha"/>
<feOffset dy="3.66408"/>
<feGaussianBlur stdDeviation="3.66408"/>
<feComposite in2="hardAlpha" operator="arithmetic" k2="-1" k3="1"/>
<feColorMatrix type="matrix" values="0 0 0 0 0.356863 0 0 0 0 0.262745 0 0 0 0 0.623529 0 0 0 0.5 0"/>
<feBlend mode="normal" in2="shape" result="effect1_innerShadow_3_152"/>
</filter>
<filter id="filter5_i_3_152" x="161.561" y="737.388" width="55.5315" height="67.2036" filterUnits="userSpaceOnUse" color-interpolation-filters="sRGB">
<feFlood flood-opacity="0" result="BackgroundImageFix"/>
<feBlend mode="normal" in="SourceGraphic" in2="BackgroundImageFix" result="shape"/>
<feColorMatrix in="SourceAlpha" type="matrix" values="0 0 0 0 0 0 0 0 0 0 0 0 0 0 0 0 0 0 127 0" result="hardAlpha"/>
<feOffset dy="3.66408"/>
<feGaussianBlur stdDeviation="3.66408"/>
<feComposite in2="hardAlpha" operator="arithmetic" k2="-1" k3="1"/>
<feColorMatrix type="matrix" values="0 0 0 0 0.356863 0 0 0 0 0.262745 0 0 0 0 0.623529 0 0 0 0.5 0"/>
<feBlend mode="normal" in2="shape" result="effect1_innerShadow_3_152"/>
</filter>
<filter id="filter6_i_3_152" x="517.874" y="263.19" width="104.829" height="117.122" filterUnits="userSpaceOnUse" color-interpolation-filters="sRGB">
<feFlood flood-opacity="0" result="BackgroundImageFix"/>
<feBlend mode="normal" in="SourceGraphic" in2="BackgroundImageFix" result="shape"/>
<feColorMatrix in="SourceAlpha" type="matrix" values="0 0 0 0 0 0 0 0 0 0 0 0 0 0 0 0 0 0 127 0" result="hardAlpha"/>
<feOffset dy="3.66408"/>
<feGaussianBlur stdDeviation="3.66408"/>
<feComposite in2="hardAlpha" operator="arithmetic" k2="-1" k3="1"/>
<feColorMatrix type="matrix" values="0 0 0 0 0.356863 0 0 0 0 0.262745 0 0 0 0 0.623529 0 0 0 0.5 0"/>
<feBlend mode="normal" in2="shape" result="effect1_innerShadow_3_152"/>
</filter>
<filter id="filter7_i_3_152" x="535.189" y="281.061" width="71.3633" height="75.0396" filterUnits="userSpaceOnUse" color-interpolation-filters="sRGB">
<feFlood flood-opacity="0" result="BackgroundImageFix"/>
<feBlend mode="normal" in="SourceGraphic" in2="BackgroundImageFix" result="shape"/>
<feColorMatrix in="SourceAlpha" type="matrix" values="0 0 0 0 0 0 0 0 0 0 0 0 0 0 0 0 0 0 127 0" result="hardAlpha"/>
<feOffset dy="3.66408"/>
<feGaussianBlur stdDeviation="3.66408"/>
<feComposite in2="hardAlpha" operator="arithmetic" k2="-1" k3="1"/>
<feColorMatrix type="matrix" values="0 0 0 0 0.356863 0 0 0 0 0.262745 0 0 0 0 0.623529 0 0 0 0.5 0"/>
<feBlend mode="normal" in2="shape" result="effect1_innerShadow_3_152"/>
</filter>
<filter id="filter8_i_3_152" x="608.6" y="627.564" width="96.5031" height="116.244" filterUnits="userSpaceOnUse" color-interpolation-filters="sRGB">
<feFlood flood-opacity="0" result="BackgroundImageFix"/>
<feBlend mode="normal" in="SourceGraphic" in2="BackgroundImageFix" result="shape"/>
<feColorMatrix in="SourceAlpha" type="matrix" values="0 0 0 0 0 0 0 0 0 0 0 0 0 0 0 0 0 0 127 0" result="hardAlpha"/>
<feOffset dy="3.66408"/>
<feGaussianBlur stdDeviation="3.66408"/>
<feComposite in2="hardAlpha" operator="arithmetic" k2="-1" k3="1"/>
<feColorMatrix type="matrix" values="0 0 0 0 0.356863 0 0 0 0 0.262745 0 0 0 0 0.623529 0 0 0 0.5 0"/>
<feBlend mode="normal" in2="shape" result="effect1_innerShadow_3_152"/>
</filter>
<filter id="filter9_i_3_152" x="623.422" y="643.781" width="63.9752" height="79.2832" filterUnits="userSpaceOnUse" color-interpolation-filters="sRGB">
<feFlood flood-opacity="0" result="BackgroundImageFix"/>
<feBlend mode="normal" in="SourceGraphic" in2="BackgroundImageFix" result="shape"/>
<feColorMatrix in="SourceAlpha" type="matrix" values="0 0 0 0 0 0 0 0 0 0 0 0 0 0 0 0 0 0 127 0" result="hardAlpha"/>
<feOffset dy="3.66408"/>
<feGaussianBlur stdDeviation="3.66408"/>
<feComposite in2="hardAlpha" operator="arithmetic" k2="-1" k3="1"/>
<feColorMatrix type="matrix" values="0 0 0 0 0.356863 0 0 0 0 0.262745 0 0 0 0 0.623529 0 0 0 0.5 0"/>
<feBlend mode="normal" in2="shape" result="effect1_innerShadow_3_152"/>
</filter>
<filter id="filter10_i_3_152" x="244.464" y="594.157" width="34.3481" height="38.0181" filterUnits="userSpaceOnUse" color-interpolation-filters="sRGB">
<feFlood flood-opacity="0" result="BackgroundImageFix"/>
<feBlend mode="normal" in="SourceGraphic" in2="BackgroundImageFix" result="shape"/>
<feColorMatrix in="SourceAlpha" type="matrix" values="0 0 0 0 0 0 0 0 0 0 0 0 0 0 0 0 0 0 127 0" result="hardAlpha"/>
<feOffset dy="3.66408"/>
<feGaussianBlur stdDeviation="3.66408"/>
<feComposite in2="hardAlpha" operator="arithmetic" k2="-1" k3="1"/>
<feColorMatrix type="matrix" values="0 0 0 0 0.356863 0 0 0 0 0.262745 0 0 0 0 0.623529 0 0 0 0.5 0"/>
<feBlend mode="normal" in2="shape" result="effect1_innerShadow_3_152"/>
</filter>
<filter id="filter11_i_3_152" x="683.982" y="407.78" width="55.8263" height="65.9492" filterUnits="userSpaceOnUse" color-interpolation-filters="sRGB">
<feFlood flood-opacity="0" result="BackgroundImageFix"/>
<feBlend mode="normal" in="SourceGraphic" in2="BackgroundImageFix" result="shape"/>
<feColorMatrix in="SourceAlpha" type="matrix" values="0 0 0 0 0 0 0 0 0 0 0 0 0 0 0 0 0 0 127 0" result="hardAlpha"/>
<feOffset dy="3.66408"/>
<feGaussianBlur stdDeviation="3.66408"/>
<feComposite in2="hardAlpha" operator="arithmetic" k2="-1" k3="1"/>
<feColorMatrix type="matrix" values="0 0 0 0 0.356863 0 0 0 0 0.262745 0 0 0 0 0.623529 0 0 0 0.5 0"/>
<feBlend mode="normal" in2="shape" result="effect1_innerShadow_3_152"/>
</filter>
<filter id="filter12_i_3_152" x="707.63" y="315.907" width="55.8263" height="65.9492" filterUnits="userSpaceOnUse" color-interpolation-filters="sRGB">
<feFlood flood-opacity="0" result="BackgroundImageFix"/>
<feBlend mode="normal" in="SourceGraphic" in2="BackgroundImageFix" result="shape"/>
<feColorMatrix in="SourceAlpha" type="matrix" values="0 0 0 0 0 0 0 0 0 0 0 0 0 0 0 0 0 0 127 0" result="hardAlpha"/>
<feOffset dy="3.66408"/>
<feGaussianBlur stdDeviation="3.66408"/>
<feComposite in2="hardAlpha" operator="arithmetic" k2="-1" k3="1"/>
<feColorMatrix type="matrix" values="0 0 0 0 0.356863 0 0 0 0 0.262745 0 0 0 0 0.623529 0 0 0 0.5 0"/>
<feBlend mode="normal" in2="shape" result="effect1_innerShadow_3_152"/>
</filter>
<filter id="filter13_i_3_152" x="248.932" y="365.637" width="105.102" height="101.591" filterUnits="userSpaceOnUse" color-interpolation-filters="sRGB">
<feFlood flood-opacity="0" result="BackgroundImageFix"/>
<feBlend mode="normal" in="SourceGraphic" in2="BackgroundImageFix" result="shape"/>
<feColorMatrix in="SourceAlpha" type="matrix" values="0 0 0 0 0 0 0 0 0 0 0 0 0 0 0 0 0 0 127 0" result="hardAlpha"/>
<feOffset dy="3.66408"/>
<feGaussianBlur stdDeviation="3.66408"/>
<feComposite in2="hardAlpha" operator="arithmetic" k2="-1" k3="1"/>
<feColorMatrix type="matrix" values="0 0 0 0 0.356863 0 0 0 0 0.262745 0 0 0 0 0.623529 0 0 0 0.5 0"/>
<feBlend mode="normal" in2="shape" result="effect1_innerShadow_3_152"/>
</filter>
<filter id="filter14_i_3_152" x="270.047" y="380.68" width="68.4879" height="71.6094" filterUnits="userSpaceOnUse" color-interpolation-filters="sRGB">
<feFlood flood-opacity="0" result="BackgroundImageFix"/>
<feBlend mode="normal" in="SourceGraphic" in2="BackgroundImageFix" result="shape"/>
<feColorMatrix in="SourceAlpha" type="matrix" values="0 0 0 0 0 0 0 0 0 0 0 0 0 0 0 0 0 0 127 0" result="hardAlpha"/>
<feOffset dy="3.66408"/>
<feGaussianBlur stdDeviation="3.66408"/>
<feComposite in2="hardAlpha" operator="arithmetic" k2="-1" k3="1"/>
<feColorMatrix type="matrix" values="0 0 0 0 0.356863 0 0 0 0 0.262745 0 0 0 0 0.623529 0 0 0 0.5 0"/>
<feBlend mode="normal" in2="shape" result="effect1_innerShadow_3_152"/>
</filter>
<filter id="filter15_i_3_152" x="163.002" y="427.928" width="21.0804" height="22.5658" filterUnits="userSpaceOnUse" color-interpolation-filters="sRGB">
<feFlood flood-opacity="0" result="BackgroundImageFix"/>
<feBlend mode="normal" in="SourceGraphic" in2="BackgroundImageFix" result="shape"/>
<feColorMatrix in="SourceAlpha" type="matrix" values="0 0 0 0 0 0 0 0 0 0 0 0 0 0 0 0 0 0 127 0" result="hardAlpha"/>
<feOffset dy="1.65225"/>
<feGaussianBlur stdDeviation="1.65225"/>
<feComposite in2="hardAlpha" operator="arithmetic" k2="-1" k3="1"/>
<feColorMatrix type="matrix" values="0 0 0 0 0.403922 0 0 0 0 0.309804 0 0 0 0 0.0156863 0 0 0 0.25 0"/>
<feBlend mode="normal" in2="shape" result="effect1_innerShadow_3_152"/>
</filter>
<filter id="filter16_i_3_152" x="286.127" y="286.623" width="20.1436" height="23.648" filterUnits="userSpaceOnUse" color-interpolation-filters="sRGB">
<feFlood flood-opacity="0" result="BackgroundImageFix"/>
<feBlend mode="normal" in="SourceGraphic" in2="BackgroundImageFix" result="shape"/>
<feColorMatrix in="SourceAlpha" type="matrix" values="0 0 0 0 0 0 0 0 0 0 0 0 0 0 0 0 0 0 127 0" result="hardAlpha"/>
<feOffset dy="3.66408"/>
<feGaussianBlur stdDeviation="3.66408"/>
<feComposite in2="hardAlpha" operator="arithmetic" k2="-1" k3="1"/>
<feColorMatrix type="matrix" values="0 0 0 0 0.356863 0 0 0 0 0.262745 0 0 0 0 0.623529 0 0 0 0.5 0"/>
<feBlend mode="normal" in2="shape" result="effect1_innerShadow_3_152"/>
</filter>
<filter id="filter17_i_3_152" x="158.746" y="185.262" width="20.1436" height="23.648" filterUnits="userSpaceOnUse" color-interpolation-filters="sRGB">
<feFlood flood-opacity="0" result="BackgroundImageFix"/>
<feBlend mode="normal" in="SourceGraphic" in2="BackgroundImageFix" result="shape"/>
<feColorMatrix in="SourceAlpha" type="matrix" values="0 0 0 0 0 0 0 0 0 0 0 0 0 0 0 0 0 0 127 0" result="hardAlpha"/>
<feOffset dy="3.66408"/>
<feGaussianBlur stdDeviation="3.66408"/>
<feComposite in2="hardAlpha" operator="arithmetic" k2="-1" k3="1"/>
<feColorMatrix type="matrix" values="0 0 0 0 0.356863 0 0 0 0 0.262745 0 0 0 0 0.623529 0 0 0 0.5 0"/>
<feBlend mode="normal" in2="shape" result="effect1_innerShadow_3_152"/>
</filter>
<filter id="filter18_i_3_152" x="701.027" y="715.907" width="20.1436" height="23.648" filterUnits="userSpaceOnUse" color-interpolation-filters="sRGB">
<feFlood flood-opacity="0" result="BackgroundImageFix"/>
<feBlend mode="normal" in="SourceGraphic" in2="BackgroundImageFix" result="shape"/>
<feColorMatrix in="SourceAlpha" type="matrix" values="0 0 0 0 0 0 0 0 0 0 0 0 0 0 0 0 0 0 127 0" result="hardAlpha"/>
<feOffset dy="3.66408"/>
<feGaussianBlur stdDeviation="3.66408"/>
<feComposite in2="hardAlpha" operator="arithmetic" k2="-1" k3="1"/>
<feColorMatrix type="matrix" values="0 0 0 0 0.356863 0 0 0 0 0.262745 0 0 0 0 0.623529 0 0 0 0.5 0"/>
<feBlend mode="normal" in2="shape" result="effect1_innerShadow_3_152"/>
</filter>
<filter id="filter19_i_3_152" x="712.607" y="594.804" width="20.1436" height="23.648" filterUnits="userSpaceOnUse" color-interpolation-filters="sRGB">
<feFlood flood-opacity="0" result="BackgroundImageFix"/>
<feBlend mode="normal" in="SourceGraphic" in2="BackgroundImageFix" result="shape"/>
<feColorMatrix in="SourceAlpha" type="matrix" values="0 0 0 0 0 0 0 0 0 0 0 0 0 0 0 0 0 0 127 0" result="hardAlpha"/>
<feOffset dy="3.66408"/>
<feGaussianBlur stdDeviation="3.66408"/>
<feComposite in2="hardAlpha" operator="arithmetic" k2="-1" k3="1"/>
<feColorMatrix type="matrix" values="0 0 0 0 0.356863 0 0 0 0 0.262745 0 0 0 0 0.623529 0 0 0 0.5 0"/>
<feBlend mode="normal" in2="shape" result="effect1_innerShadow_3_152"/>
</filter>
<filter id="filter20_i_3_152" x="303.339" y="744.083" width="20.1436" height="23.648" filterUnits="userSpaceOnUse" color-interpolation-filters="sRGB">
<feFlood flood-opacity="0" result="BackgroundImageFix"/>
<feBlend mode="normal" in="SourceGraphic" in2="BackgroundImageFix" result="shape"/>
<feColorMatrix in="SourceAlpha" type="matrix" values="0 0 0 0 0 0 0 0 0 0 0 0 0 0 0 0 0 0 127 0" result="hardAlpha"/>
<feOffset dy="3.66408"/>
<feGaussianBlur stdDeviation="3.66408"/>
<feComposite in2="hardAlpha" operator="arithmetic" k2="-1" k3="1"/>
<feColorMatrix type="matrix" values="0 0 0 0 0.356863 0 0 0 0 0.262745 0 0 0 0 0.623529 0 0 0 0.5 0"/>
<feBlend mode="normal" in2="shape" result="effect1_innerShadow_3_152"/>
</filter>
<filter id="filter21_i_3_152" x="517.805" y="447.617" width="164.423" height="158.635" filterUnits="userSpaceOnUse" color-interpolation-filters="sRGB">
<feFlood flood-opacity="0" result="BackgroundImageFix"/>
<feBlend mode="normal" in="SourceGraphic" in2="BackgroundImageFix" result="shape"/>
<feColorMatrix in="SourceAlpha" type="matrix" values="0 0 0 0 0 0 0 0 0 0 0 0 0 0 0 0 0 0 127 0" result="hardAlpha"/>
<feOffset dy="3.66408"/>
<feGaussianBlur stdDeviation="3.66408"/>
<feComposite in2="hardAlpha" operator="arithmetic" k2="-1" k3="1"/>
<feColorMatrix type="matrix" values="0 0 0 0 0.356863 0 0 0 0 0.262745 0 0 0 0 0.623529 0 0 0 0.5 0"/>
<feBlend mode="normal" in2="shape" result="effect1_innerShadow_3_152"/>
</filter>
<filter id="filter22_i_3_152" x="546.509" y="470.526" width="109.759" height="110.512" filterUnits="userSpaceOnUse" color-interpolation-filters="sRGB">
<feFlood flood-opacity="0" result="BackgroundImageFix"/>
<feBlend mode="normal" in="SourceGraphic" in2="BackgroundImageFix" result="shape"/>
<feColorMatrix in="SourceAlpha" type="matrix" values="0 0 0 0 0 0 0 0 0 0 0 0 0 0 0 0 0 0 127 0" result="hardAlpha"/>
<feOffset dy="3.66408"/>
<feGaussianBlur stdDeviation="3.66408"/>
<feComposite in2="hardAlpha" operator="arithmetic" k2="-1" k3="1"/>
<feColorMatrix type="matrix" values="0 0 0 0 0.356863 0 0 0 0 0.262745 0 0 0 0 0.623529 0 0 0 0.5 0"/>
<feBlend mode="normal" in2="shape" result="effect1_innerShadow_3_152"/>
</filter>
<filter id="filter23_i_3_152" x="557.647" y="498.045" width="61.183" height="63.2241" filterUnits="userSpaceOnUse" color-interpolation-filters="sRGB">
<feFlood flood-opacity="0" result="BackgroundImageFix"/>
<feBlend mode="normal" in="SourceGraphic" in2="BackgroundImageFix" result="shape"/>
<feColorMatrix in="SourceAlpha" type="matrix" values="0 0 0 0 0 0 0 0 0 0 0 0 0 0 0 0 0 0 127 0" result="hardAlpha"/>
<feOffset dy="3.66408"/>
<feGaussianBlur stdDeviation="3.66408"/>
<feComposite in2="hardAlpha" operator="arithmetic" k2="-1" k3="1"/>
<feColorMatrix type="matrix" values="0 0 0 0 0.356863 0 0 0 0 0.262745 0 0 0 0 0.623529 0 0 0 0.5 0"/>
<feBlend mode="normal" in2="shape" result="effect1_innerShadow_3_152"/>
</filter>
<filter id="filter24_i_3_152" x="502.476" y="394.881" width="39.9486" height="42.5532" filterUnits="userSpaceOnUse" color-interpolation-filters="sRGB">
<feFlood flood-opacity="0" result="BackgroundImageFix"/>
<feBlend mode="normal" in="SourceGraphic" in2="BackgroundImageFix" result="shape"/>
<feColorMatrix in="SourceAlpha" type="matrix" values="0 0 0 0 0 0 0 0 0 0 0 0 0 0 0 0 0 0 127 0" result="hardAlpha"/>
<feOffset dy="3.66408"/>
<feGaussianBlur stdDeviation="3.66408"/>
<feComposite in2="hardAlpha" operator="arithmetic" k2="-1" k3="1"/>
<feColorMatrix type="matrix" values="0 0 0 0 0.356863 0 0 0 0 0.262745 0 0 0 0 0.623529 0 0 0 0.5 0"/>
<feBlend mode="normal" in2="shape" result="effect1_innerShadow_3_152"/>
</filter>
<filter id="filter25_i_3_152" x="290.957" y="60.8716" width="168.905" height="173.96" filterUnits="userSpaceOnUse" color-interpolation-filters="sRGB">
<feFlood flood-opacity="0" result="BackgroundImageFix"/>
<feBlend mode="normal" in="SourceGraphic" in2="BackgroundImageFix" result="shape"/>
<feColorMatrix in="SourceAlpha" type="matrix" values="0 0 0 0 0 0 0 0 0 0 0 0 0 0 0 0 0 0 127 0" result="hardAlpha"/>
<feOffset dy="3.66408"/>
<feGaussianBlur stdDeviation="3.66408"/>
<feComposite in2="hardAlpha" operator="arithmetic" k2="-1" k3="1"/>
<feColorMatrix type="matrix" values="0 0 0 0 0.356863 0 0 0 0 0.262745 0 0 0 0 0.623529 0 0 0 0.5 0"/>
<feBlend mode="normal" in2="shape" result="effect1_innerShadow_3_152"/>
</filter>
<filter id="filter26_i_3_152" x="316.615" y="85.063" width="115.905" height="122.221" filterUnits="userSpaceOnUse" color-interpolation-filters="sRGB">
<feFlood flood-opacity="0" result="BackgroundImageFix"/>
<feBlend mode="normal" in="SourceGraphic" in2="BackgroundImageFix" result="shape"/>
<feColorMatrix in="SourceAlpha" type="matrix" values="0 0 0 0 0 0 0 0 0 0 0 0 0 0 0 0 0 0 127 0" result="hardAlpha"/>
<feOffset dy="3.66408"/>
<feGaussianBlur stdDeviation="3.66408"/>
<feComposite in2="hardAlpha" operator="arithmetic" k2="-1" k3="1"/>
<feColorMatrix type="matrix" values="0 0 0 0 0.356863 0 0 0 0 0.262745 0 0 0 0 0.623529 0 0 0 0.5 0"/>
<feBlend mode="normal" in2="shape" result="effect1_innerShadow_3_152"/>
</filter>
<filter id="filter27_i_3_152" x="344.211" y="97.2686" width="64.6091" height="69.751" filterUnits="userSpaceOnUse" color-interpolation-filters="sRGB">
<feFlood flood-opacity="0" result="BackgroundImageFix"/>
<feBlend mode="normal" in="SourceGraphic" in2="BackgroundImageFix" result="shape"/>
<feColorMatrix in="SourceAlpha" type="matrix" values="0 0 0 0 0 0 0 0 0 0 0 0 0 0 0 0 0 0 127 0" result="hardAlpha"/>
<feOffset dy="3.66408"/>
<feGaussianBlur stdDeviation="3.66408"/>
<feComposite in2="hardAlpha" operator="arithmetic" k2="-1" k3="1"/>
<feColorMatrix type="matrix" values="0 0 0 0 0.356863 0 0 0 0 0.262745 0 0 0 0 0.623529 0 0 0 0.5 0"/>
<feBlend mode="normal" in2="shape" result="effect1_innerShadow_3_152"/>
</filter>
<filter id="filter28_i_3_152" x="173.097" y="253.028" width="95.2397" height="103.407" filterUnits="userSpaceOnUse" color-interpolation-filters="sRGB">
<feFlood flood-opacity="0" result="BackgroundImageFix"/>
<feBlend mode="normal" in="SourceGraphic" in2="BackgroundImageFix" result="shape"/>
<feColorMatrix in="SourceAlpha" type="matrix" values="0 0 0 0 0 0 0 0 0 0 0 0 0 0 0 0 0 0 127 0" result="hardAlpha"/>
<feOffset dy="3.66408"/>
<feGaussianBlur stdDeviation="3.66408"/>
<feComposite in2="hardAlpha" operator="arithmetic" k2="-1" k3="1"/>
<feColorMatrix type="matrix" values="0 0 0 0 0.356863 0 0 0 0 0.262745 0 0 0 0 0.623529 0 0 0 0.5 0"/>
<feBlend mode="normal" in2="shape" result="effect1_innerShadow_3_152"/>
</filter>
<filter id="filter29_i_3_152" x="186.324" y="272.397" width="66.7561" height="69.7378" filterUnits="userSpaceOnUse" color-interpolation-filters="sRGB">
<feFlood flood-opacity="0" result="BackgroundImageFix"/>
<feBlend mode="normal" in="SourceGraphic" in2="BackgroundImageFix" result="shape"/>
<feColorMatrix in="SourceAlpha" type="matrix" values="0 0 0 0 0 0 0 0 0 0 0 0 0 0 0 0 0 0 127 0" result="hardAlpha"/>
<feOffset dy="3.66408"/>
<feGaussianBlur stdDeviation="3.66408"/>
<feComposite in2="hardAlpha" operator="arithmetic" k2="-1" k3="1"/>
<feColorMatrix type="matrix" values="0 0 0 0 0.356863 0 0 0 0 0.262745 0 0 0 0 0.623529 0 0 0 0.5 0"/>
<feBlend mode="normal" in2="shape" result="effect1_innerShadow_3_152"/>
</filter>
<filter id="filter30_i_3_152" x="194.107" y="282" width="37.2118" height="40.4951" filterUnits="userSpaceOnUse" color-interpolation-filters="sRGB">
<feFlood flood-opacity="0" result="BackgroundImageFix"/>
<feBlend mode="normal" in="SourceGraphic" in2="BackgroundImageFix" result="shape"/>
<feColorMatrix in="SourceAlpha" type="matrix" values="0 0 0 0 0 0 0 0 0 0 0 0 0 0 0 0 0 0 127 0" result="hardAlpha"/>
<feOffset dy="3.66408"/>
<feGaussianBlur stdDeviation="3.66408"/>
<feComposite in2="hardAlpha" operator="arithmetic" k2="-1" k3="1"/>
<feColorMatrix type="matrix" values="0 0 0 0 0.356863 0 0 0 0 0.262745 0 0 0 0 0.623529 0 0 0 0.5 0"/>
<feBlend mode="normal" in2="shape" result="effect1_innerShadow_3_152"/>
</filter>
<filter id="filter31_i_3_152" x="85.2699" y="476.701" width="106.763" height="111.246" filterUnits="userSpaceOnUse" color-interpolation-filters="sRGB">
<feFlood flood-opacity="0" result="BackgroundImageFix"/>
<feBlend mode="normal" in="SourceGraphic" in2="BackgroundImageFix" result="shape"/>
<feColorMatrix in="SourceAlpha" type="matrix" values="0 0 0 0 0 0 0 0 0 0 0 0 0 0 0 0 0 0 127 0" result="hardAlpha"/>
<feOffset dy="3.66408"/>
<feGaussianBlur stdDeviation="3.66408"/>
<feComposite in2="hardAlpha" operator="arithmetic" k2="-1" k3="1"/>
<feColorMatrix type="matrix" values="0 0 0 0 0.356863 0 0 0 0 0.262745 0 0 0 0 0.623529 0 0 0 0.5 0"/>
<feBlend mode="normal" in2="shape" result="effect1_innerShadow_3_152"/>
</filter>
<filter id="filter32_i_3_152" x="102.577" y="494.105" width="73.2516" height="78.5855" filterUnits="userSpaceOnUse" color-interpolation-filters="sRGB">
<feFlood flood-opacity="0" result="BackgroundImageFix"/>
<feBlend mode="normal" in="SourceGraphic" in2="BackgroundImageFix" result="shape"/>
<feColorMatrix in="SourceAlpha" type="matrix" values="0 0 0 0 0 0 0 0 0 0 0 0 0 0 0 0 0 0 127 0" result="hardAlpha"/>
<feOffset dy="3.66408"/>
<feGaussianBlur stdDeviation="3.66408"/>
<feComposite in2="hardAlpha" operator="arithmetic" k2="-1" k3="1"/>
<feColorMatrix type="matrix" values="0 0 0 0 0.356863 0 0 0 0 0.262745 0 0 0 0 0.623529 0 0 0 0.5 0"/>
<feBlend mode="normal" in2="shape" result="effect1_innerShadow_3_152"/>
</filter>
<filter id="filter33_i_3_152" x="509.859" y="110.813" width="112.812" height="108.774" filterUnits="userSpaceOnUse" color-interpolation-filters="sRGB">
<feFlood flood-opacity="0" result="BackgroundImageFix"/>
<feBlend mode="normal" in="SourceGraphic" in2="BackgroundImageFix" result="shape"/>
<feColorMatrix in="SourceAlpha" type="matrix" values="0 0 0 0 0 0 0 0 0 0 0 0 0 0 0 0 0 0 127 0" result="hardAlpha"/>
<feOffset dy="3.66408"/>
<feGaussianBlur stdDeviation="3.66408"/>
<feComposite in2="hardAlpha" operator="arithmetic" k2="-1" k3="1"/>
<feColorMatrix type="matrix" values="0 0 0 0 0.356863 0 0 0 0 0.262745 0 0 0 0 0.623529 0 0 0 0.5 0"/>
<feBlend mode="normal" in2="shape" result="effect1_innerShadow_3_152"/>
</filter>
<filter id="filter34_i_3_152" x="532.522" y="126.959" width="73.5116" height="76.5933" filterUnits="userSpaceOnUse" color-interpolation-filters="sRGB">
<feFlood flood-opacity="0" result="BackgroundImageFix"/>
<feBlend mode="normal" in="SourceGraphic" in2="BackgroundImageFix" result="shape"/>
<feColorMatrix in="SourceAlpha" type="matrix" values="0 0 0 0 0 0 0 0 0 0 0 0 0 0 0 0 0 0 127 0" result="hardAlpha"/>
<feOffset dy="3.66408"/>
<feGaussianBlur stdDeviation="3.66408"/>
<feComposite in2="hardAlpha" operator="arithmetic" k2="-1" k3="1"/>
<feColorMatrix type="matrix" values="0 0 0 0 0.356863 0 0 0 0 0.262745 0 0 0 0 0.623529 0 0 0 0.5 0"/>
<feBlend mode="normal" in2="shape" result="effect1_innerShadow_3_152"/>
</filter>
<filter id="filter35_i_3_152" x="54.2207" y="290.253" width="67.423" height="74.2749" filterUnits="userSpaceOnUse" color-interpolation-filters="sRGB">
<feFlood flood-opacity="0" result="BackgroundImageFix"/>
<feBlend mode="normal" in="SourceGraphic" in2="BackgroundImageFix" result="shape"/>
<feColorMatrix in="SourceAlpha" type="matrix" values="0 0 0 0 0 0 0 0 0 0 0 0 0 0 0 0 0 0 127 0" result="hardAlpha"/>
<feOffset dy="3.66408"/>
<feGaussianBlur stdDeviation="3.66408"/>
<feComposite in2="hardAlpha" operator="arithmetic" k2="-1" k3="1"/>
<feColorMatrix type="matrix" values="0 0 0 0 0.356863 0 0 0 0 0.262745 0 0 0 0 0.623529 0 0 0 0.5 0"/>
<feBlend mode="normal" in2="shape" result="effect1_innerShadow_3_152"/>
</filter>
<filter id="filter36_f_3_152" x="-219.15" y="0.875977" width="1106.01" height="839.688" filterUnits="userSpaceOnUse" color-interpolation-filters="sRGB">
<feFlood flood-opacity="0" result="BackgroundImageFix"/>
<feBlend mode="normal" in="SourceGraphic" in2="BackgroundImageFix" result="shape"/>
<feGaussianBlur stdDeviation="20" result="effect1_foregroundBlur_3_152"/>
</filter>
<filter id="filter37_f_3_152" x="58.5372" y="10.1104" width="1106.07" height="903.662" filterUnits="userSpaceOnUse" color-interpolation-filters="sRGB">
<feFlood flood-opacity="0" result="BackgroundImageFix"/>
<feBlend mode="normal" in="SourceGraphic" in2="BackgroundImageFix" result="shape"/>
<feGaussianBlur stdDeviation="25" result="effect1_foregroundBlur_3_152"/>
</filter>
<linearGradient id="paint0_linear_3_152" x1="636.304" y1="256.158" x2="-45.1962" y2="901.158" gradientUnits="userSpaceOnUse">
<stop stop-color="#E2D8FE"/>
<stop offset="1" stop-color="#836EBE"/>
</linearGradient>
<linearGradient id="paint1_linear_3_152" x1="188.653" y1="549.643" x2="464.332" y2="452.921" gradientUnits="userSpaceOnUse">
<stop stop-color="#705EA9"/>
<stop offset="1" stop-color="#C4B7EA"/>
</linearGradient>
<clipPath id="clip0_3_152">
<rect x="120.804" y="158.658" width="600" height="600" rx="300" transform="rotate(-4 120.804 158.658)" fill="white"/>
</clipPath>
</defs>
</svg>
